<svg xmlns="http://www.w3.org/2000/svg" viewBox="0 0 96 96" width="96" height="96" shape-rendering="crispEdges">
<rect x="34" y="18" width="8" height="28" fill="#f7d6ff"/>
<rect x="54" y="18" width="8" height="28" fill="#f7d6ff"/>
<rect x="36" y="22" width="4" height="20" fill="#fff2a8"/>
<rect x="56" y="22" width="4" height="20" fill="#fff2a8"/>
<rect x="28" y="42" width="40" height="30" fill="#f7d6ff"/>
<rect x="62" y="48" width="12" height="12" fill="#f7d6ff"/>
<rect x="36" y="50" width="5" height="5" fill="#19133a"/>
<rect x="56" y="50" width="5" height="5" fill="#19133a"/>
<rect x="46" y="56" width="4" height="4" fill="#ff8fab"/>
<rect x="22" y="58" width="10" height="10" fill="#f7d6ff"/>
<rect x="34" y="72" width="10" height="8" fill="#9d7ac4"/>
<rect x="54" y="72" width="10" height="8" fill="#9d7ac4"/>
<rect x="14" y="32" width="8" height="8" fill="#fff2a8" opacity=".85"/>
<rect x="18" y="26" width="4" height="4" fill="#fff9c7"/>
<rect x="72" y="34" width="8" height="8" fill="#fff2a8" opacity=".85"/>
<rect x="78" y="28" width="4" height="4" fill="#fff9c7"/>
<rect x="18" y="82" width="60" height="8" fill="#000000" opacity=".16"/>
</svg>
